<?xml version="1.0" encoding="UTF-8" standalone="no"?>
<!DOCTYPE svg PUBLIC "-//W3C//DTD SVG 1.1//EN"
 "http://www.w3.org/Graphics/SVG/1.1/DTD/svg11.dtd">
<!-- Generated by graphviz version 2.40.1 (20161225.0304)
 -->
<!-- Title: %3 Pages: 1 -->
<svg width="182pt" height="401pt"
 viewBox="0.00 0.00 182.00 401.00" xmlns="http://www.w3.org/2000/svg" xmlns:xlink="http://www.w3.org/1999/xlink">
<g id="graph0" class="graph" transform="scale(1 1) rotate(0) translate(4 397)">
<title>%3</title>
<polygon fill="#ffffff" stroke="transparent" points="-4,4 -4,-397 178,-397 178,4 -4,4"/>
<g id="clust1" class="cluster">
<title>cluster_9</title>
<polygon fill="none" stroke="#000000" points="8,-8 8,-274 166,-274 166,-8 8,-8"/>
</g>
<!-- 11 -->
<g id="11" class="node">
<title>11</title>
<polygon fill="none" stroke="#000000" points="141,-249 33,-249 33,-177 141,-177 141,-249"/>
<text text-anchor="middle" x="87" y="-212" font-family="Times,serif" font-size="5.00" fill="#000000">11: Power BI Metadata Collection Functions</text>
</g>
<!-- 10 -->
<g id="10" class="node">
<title>10</title>
<polygon fill="none" stroke="#000000" points="141,-105 33,-105 33,-33 141,-33 141,-105"/>
<text text-anchor="middle" x="87" y="-68" font-family="Times,serif" font-size="5.00" fill="#000000">10: Power BI Metadata &amp; Usage</text>
</g>
<!-- 11&#45;&gt;10 -->
<g id="59" class="edge">
<title>11&#45;&gt;10</title>
<path fill="none" stroke="#000000" d="M87,-176.6627C87,-158.0027 87,-135.0673 87,-115.1671"/>
<polygon fill="#000000" stroke="#000000" points="90.5001,-115.0759 87,-105.076 83.5001,-115.076 90.5001,-115.0759"/>
</g>
<!-- 16 -->
<g id="16" class="node">
<title>16</title>
<polygon fill="none" stroke="#000000" points="141,-393 33,-393 33,-321 141,-321 141,-393"/>
<text text-anchor="middle" x="87" y="-356" font-family="Times,serif" font-size="5.00" fill="#000000">16: Power Platform</text>
</g>
<!-- 16&#45;&gt;11 -->
<g id="57" class="edge">
<title>16&#45;&gt;11</title>
<path fill="none" stroke="#000000" d="M87,-320.6627C87,-302.0027 87,-279.0673 87,-259.1671"/>
<polygon fill="#000000" stroke="#000000" points="90.5001,-259.0759 87,-249.076 83.5001,-259.076 90.5001,-259.0759"/>
</g>
</g>
</svg>
