<?xml version="1.0" encoding="UTF-8" standalone="no"?>
<!DOCTYPE svg PUBLIC "-//W3C//DTD SVG 1.1//EN"
 "http://www.w3.org/Graphics/SVG/1.1/DTD/svg11.dtd">
<!-- Generated by graphviz version 2.40.1 (20161225.0304)
 -->
<!-- Title: %3 Pages: 1 -->
<svg width="902pt" height="146pt"
 viewBox="0.00 0.00 902.00 146.00" xmlns="http://www.w3.org/2000/svg" xmlns:xlink="http://www.w3.org/1999/xlink">
<g id="graph0" class="graph" transform="scale(1 1) rotate(0) translate(4 142)">
<title>%3</title>
<polygon fill="#ffffff" stroke="transparent" points="-4,4 -4,-142 898,-142 898,4 -4,4"/>
<g id="clust1" class="cluster">
<title>cluster_8</title>
<polygon fill="none" stroke="#000000" points="8,-8 8,-130 886,-130 886,-8 8,-8"/>
</g>
<!-- 11 -->
<g id="11" class="node">
<title>11</title>
<polygon fill="none" stroke="#000000" points="861,-105 753,-105 753,-33 861,-33 861,-105"/>
<text text-anchor="middle" x="807" y="-68" font-family="Times,serif" font-size="5.00" fill="#000000">11: ADLS &#45; Bronze</text>
</g>
<!-- 12 -->
<g id="12" class="node">
<title>12</title>
<polygon fill="none" stroke="#000000" points="681,-105 573,-105 573,-33 681,-33 681,-105"/>
<text text-anchor="middle" x="627" y="-68" font-family="Times,serif" font-size="5.00" fill="#000000">12: ADLS &#45; Silver</text>
</g>
<!-- 13 -->
<g id="13" class="node">
<title>13</title>
<polygon fill="none" stroke="#000000" points="501,-105 393,-105 393,-33 501,-33 501,-105"/>
<text text-anchor="middle" x="447" y="-68" font-family="Times,serif" font-size="5.00" fill="#000000">13: ADLS &#45; Gold</text>
</g>
<!-- 9 -->
<g id="9" class="node">
<title>9</title>
<polygon fill="none" stroke="#000000" points="321,-105 213,-105 213,-33 321,-33 321,-105"/>
<text text-anchor="middle" x="267" y="-68" font-family="Times,serif" font-size="5.00" fill="#000000">9: ADLS &#45; Landing</text>
</g>
<!-- 10 -->
<g id="10" class="node">
<title>10</title>
<polygon fill="none" stroke="#000000" points="141,-105 33,-105 33,-33 141,-33 141,-105"/>
<text text-anchor="middle" x="87" y="-68" font-family="Times,serif" font-size="5.00" fill="#000000">10: ADLS &#45; Raw</text>
</g>
</g>
</svg>
