<?xml version="1.0" encoding="UTF-8" standalone="no"?>
<!DOCTYPE svg PUBLIC "-//W3C//DTD SVG 1.1//EN"
 "http://www.w3.org/Graphics/SVG/1.1/DTD/svg11.dtd">
<!-- Generated by graphviz version 2.40.1 (20161225.0304)
 -->
<!-- Title: %3 Pages: 1 -->
<svg width="689pt" height="536pt"
 viewBox="0.00 0.00 689.00 536.00" xmlns="http://www.w3.org/2000/svg" xmlns:xlink="http://www.w3.org/1999/xlink">
<g id="graph0" class="graph" transform="scale(1 1) rotate(0) translate(4 532)">
<title>%3</title>
<polygon fill="#ffffff" stroke="transparent" points="-4,4 -4,-532 685,-532 685,4 -4,4"/>
<g id="clust1" class="cluster">
<title>cluster_5</title>
<polygon fill="none" stroke="#000000" points="8,-119 8,-385 346,-385 346,-119 8,-119"/>
</g>
<!-- 6 -->
<g id="6" class="node">
<title>6</title>
<polygon fill="none" stroke="#000000" points="141,-216 33,-216 33,-144 141,-144 141,-216"/>
<text text-anchor="middle" x="87" y="-179" font-family="Times,serif" font-size="5.00" fill="#000000">6: Audit Files &#45; Raw</text>
</g>
<!-- 12 -->
<g id="12" class="node">
<title>12</title>
<polygon fill="none" stroke="#000000" points="141,-72 33,-72 33,0 141,0 141,-72"/>
<text text-anchor="middle" x="87" y="-35" font-family="Times,serif" font-size="5.00" fill="#000000">12: Power BI Audit Processing Solution</text>
</g>
<!-- 6&#45;&gt;12 -->
<g id="44" class="edge">
<title>6&#45;&gt;12</title>
<path fill="none" stroke="#000000" d="M87,-143.6627C87,-125.0027 87,-102.0673 87,-82.1671"/>
<polygon fill="#000000" stroke="#000000" points="90.5001,-82.0759 87,-72.076 83.5001,-82.076 90.5001,-82.0759"/>
</g>
<!-- 7 -->
<g id="7" class="node">
<title>7</title>
<polygon fill="none" stroke="#000000" points="321,-360 213,-360 213,-288 321,-288 321,-360"/>
<text text-anchor="middle" x="267" y="-323" font-family="Times,serif" font-size="5.00" fill="#000000">7: Web Application</text>
</g>
<!-- 7&#45;&gt;6 -->
<g id="40" class="edge">
<title>7&#45;&gt;6</title>
<path fill="none" stroke="#000000" d="M221.5784,-287.6627C196.7555,-267.8044 165.8797,-243.1038 139.9658,-222.3726"/>
<polygon fill="#000000" stroke="#000000" points="142.0901,-219.5899 132.095,-216.076 137.7172,-225.056 142.0901,-219.5899"/>
</g>
<!-- 8 -->
<g id="8" class="node">
<title>8</title>
<polygon fill="none" stroke="#000000" points="321,-216 213,-216 213,-144 321,-144 321,-216"/>
<text text-anchor="middle" x="267" y="-179" font-family="Times,serif" font-size="5.00" fill="#000000">8: Web Application &#45; Configuration</text>
</g>
<!-- 7&#45;&gt;8 -->
<g id="41" class="edge">
<title>7&#45;&gt;8</title>
<path fill="none" stroke="#000000" d="M243.1904,-287.6627C239.5535,-269.0027 239.026,-246.0673 241.608,-226.1671"/>
<polygon fill="#000000" stroke="#000000" points="245.0985,-226.5068 243.2416,-216.076 238.1884,-225.3881 245.0985,-226.5068"/>
</g>
<!-- 3 -->
<g id="3" class="node">
<title>3</title>
<polygon fill="none" stroke="#000000" points="501,-216 393,-216 393,-144 501,-144 501,-216"/>
<text text-anchor="middle" x="447" y="-179" font-family="Times,serif" font-size="5.00" fill="#000000">3: Client Web Browsers</text>
</g>
<!-- 7&#45;&gt;3 -->
<g id="25" class="edge">
<title>7&#45;&gt;3</title>
<path fill="none" stroke="#000000" d="M288.612,-287.6627C313.1439,-264.4118 350.8012,-234.5227 383.9047,-212.1389"/>
<polygon fill="#000000" stroke="#000000" points="386.2622,-214.775 392.6576,-206.3281 382.3905,-208.9431 386.2622,-214.775"/>
</g>
<!-- 16 -->
<g id="16" class="node">
<title>16</title>
<polygon fill="none" stroke="#000000" points="681,-216 573,-216 573,-144 681,-144 681,-216"/>
<text text-anchor="middle" x="627" y="-179" font-family="Times,serif" font-size="5.00" fill="#000000">16: Power Platform</text>
</g>
<!-- 7&#45;&gt;16 -->
<g id="33" class="edge">
<title>7&#45;&gt;16</title>
<path fill="none" stroke="#000000" d="M321.2008,-293.285C386.5856,-264.3326 493.919,-221.928 563.2314,-198.0591"/>
<polygon fill="#000000" stroke="#000000" points="564.413,-201.3542 572.751,-194.8175 562.1565,-194.7278 564.413,-201.3542"/>
</g>
<!-- 8&#45;&gt;7 -->
<g id="42" class="edge">
<title>8&#45;&gt;7</title>
<path fill="none" stroke="#000000" d="M290.7584,-216.076C294.4244,-234.6958 294.9809,-257.6254 292.428,-277.5537"/>
<polygon fill="#000000" stroke="#000000" points="288.9345,-277.2351 290.8096,-287.6627 295.8465,-278.3418 288.9345,-277.2351"/>
</g>
<!-- 2 -->
<g id="2" class="node">
<title>2</title>
<polygon fill="none" stroke="#000000" points="315,-528 219,-528 219,-432 315,-432 315,-528"/>
<text text-anchor="middle" x="267" y="-479" font-family="Times,serif" font-size="5.00" fill="#000000">2: Information Producer</text>
</g>
<!-- 2&#45;&gt;7 -->
<g id="53" class="edge">
<title>2&#45;&gt;7</title>
<path fill="none" stroke="#000000" d="M267,-431.9219C267,-412.3434 267,-389.8002 267,-370.3971"/>
<polygon fill="#000000" stroke="#000000" points="270.5001,-370.2752 267,-360.2753 263.5001,-370.2753 270.5001,-370.2752"/>
</g>
<!-- 3&#45;&gt;7 -->
<g id="30" class="edge">
<title>3&#45;&gt;7</title>
<path fill="none" stroke="#000000" d="M425.6489,-216.0898C400.9964,-239.4966 362.9237,-269.7095 329.5785,-292.2101"/>
<polygon fill="#000000" stroke="#000000" points="327.6146,-289.3128 321.2139,-297.7556 331.4826,-295.1471 327.6146,-289.3128"/>
</g>
<!-- 16&#45;&gt;7 -->
<g id="38" class="edge">
<title>16&#45;&gt;7</title>
<path fill="none" stroke="#000000" d="M572.9315,-210.6564C507.4822,-239.6443 399.8747,-282.1559 330.5237,-306.0252"/>
<polygon fill="#000000" stroke="#000000" points="329.3395,-302.731 321.0003,-309.2662 331.5947,-309.3578 329.3395,-302.731"/>
</g>
</g>
</svg>
