<?xml version="1.0" encoding="UTF-8" standalone="no"?>
<!DOCTYPE svg PUBLIC "-//W3C//DTD SVG 1.1//EN"
 "http://www.w3.org/Graphics/SVG/1.1/DTD/svg11.dtd">
<!-- Generated by graphviz version 2.40.1 (20161225.0304)
 -->
<!-- Title: %3 Pages: 1 -->
<svg width="182pt" height="656pt"
 viewBox="0.00 0.00 182.00 656.00" xmlns="http://www.w3.org/2000/svg" xmlns:xlink="http://www.w3.org/1999/xlink">
<g id="graph0" class="graph" transform="scale(1 1) rotate(0) translate(4 652)">
<title>%3</title>
<polygon fill="#ffffff" stroke="transparent" points="-4,4 -4,-652 178,-652 178,4 -4,4"/>
<g id="clust1" class="cluster">
<title>cluster_12</title>
<polygon fill="none" stroke="#000000" points="8,-119 8,-529 166,-529 166,-119 8,-119"/>
</g>
<!-- 13 -->
<g id="13" class="node">
<title>13</title>
<polygon fill="none" stroke="#000000" points="141,-360 33,-360 33,-288 141,-288 141,-360"/>
<text text-anchor="middle" x="87" y="-323" font-family="Times,serif" font-size="5.00" fill="#000000">13: Audit Files &#45; Processed</text>
</g>
<!-- 15 -->
<g id="15" class="node">
<title>15</title>
<polygon fill="none" stroke="#000000" points="141,-216 33,-216 33,-144 141,-144 141,-216"/>
<text text-anchor="middle" x="87" y="-179" font-family="Times,serif" font-size="5.00" fill="#000000">15: Audit File Generation Function</text>
</g>
<!-- 13&#45;&gt;15 -->
<g id="48" class="edge">
<title>13&#45;&gt;15</title>
<path fill="none" stroke="#000000" d="M87,-287.6627C87,-269.0027 87,-246.0673 87,-226.1671"/>
<polygon fill="#000000" stroke="#000000" points="90.5001,-226.0759 87,-216.076 83.5001,-226.076 90.5001,-226.0759"/>
</g>
<!-- 14 -->
<g id="14" class="node">
<title>14</title>
<polygon fill="none" stroke="#000000" points="141,-504 33,-504 33,-432 141,-432 141,-504"/>
<text text-anchor="middle" x="87" y="-467" font-family="Times,serif" font-size="5.00" fill="#000000">14: Post Processing Function</text>
</g>
<!-- 14&#45;&gt;13 -->
<g id="47" class="edge">
<title>14&#45;&gt;13</title>
<path fill="none" stroke="#000000" d="M87,-431.6627C87,-413.0027 87,-390.0673 87,-370.1671"/>
<polygon fill="#000000" stroke="#000000" points="90.5001,-370.0759 87,-360.076 83.5001,-370.076 90.5001,-370.0759"/>
</g>
<!-- 20 -->
<g id="20" class="node">
<title>20</title>
<polygon fill="none" stroke="#000000" points="141,-72 33,-72 33,0 141,0 141,-72"/>
<text text-anchor="middle" x="87" y="-35" font-family="Times,serif" font-size="5.00" fill="#000000">20: Enterprise Audit Storage &amp; Analytics</text>
</g>
<!-- 15&#45;&gt;20 -->
<g id="50" class="edge">
<title>15&#45;&gt;20</title>
<path fill="none" stroke="#000000" d="M87,-143.6627C87,-125.0027 87,-102.0673 87,-82.1671"/>
<polygon fill="#000000" stroke="#000000" points="90.5001,-82.0759 87,-72.076 83.5001,-82.076 90.5001,-82.0759"/>
</g>
<!-- 5 -->
<g id="5" class="node">
<title>5</title>
<polygon fill="none" stroke="#000000" points="141,-648 33,-648 33,-576 141,-576 141,-648"/>
<text text-anchor="middle" x="87" y="-611" font-family="Times,serif" font-size="5.00" fill="#000000">5: Power BI Audit Capture Solution</text>
</g>
<!-- 5&#45;&gt;14 -->
<g id="45" class="edge">
<title>5&#45;&gt;14</title>
<path fill="none" stroke="#000000" d="M87,-575.6627C87,-557.0027 87,-534.0673 87,-514.1671"/>
<polygon fill="#000000" stroke="#000000" points="90.5001,-514.0759 87,-504.076 83.5001,-514.076 90.5001,-514.0759"/>
</g>
</g>
</svg>
