<?xml version="1.0" encoding="UTF-8" standalone="no"?>
<!DOCTYPE svg PUBLIC "-//W3C//DTD SVG 1.1//EN"
 "http://www.w3.org/Graphics/SVG/1.1/DTD/svg11.dtd">
<!-- Generated by graphviz version 2.40.1 (20161225.0304)
 -->
<!-- Title: %3 Pages: 1 -->
<svg width="527pt" height="425pt"
 viewBox="0.00 0.00 527.00 425.00" xmlns="http://www.w3.org/2000/svg" xmlns:xlink="http://www.w3.org/1999/xlink">
<g id="graph0" class="graph" transform="scale(1 1) rotate(0) translate(4 421)">
<title>%3</title>
<polygon fill="#ffffff" stroke="transparent" points="-4,4 -4,-421 523,-421 523,4 -4,4"/>
<g id="clust1" class="cluster">
<title>cluster_2</title>
<polygon fill="none" stroke="#000000" points="8,-287 8,-409 346,-409 346,-287 8,-287"/>
</g>
<!-- 4 -->
<g id="4" class="node">
<title>4</title>
<polygon fill="none" stroke="#000000" points="141,-384 33,-384 33,-312 141,-312 141,-384"/>
<text text-anchor="middle" x="87" y="-347" font-family="Times,serif" font-size="5.00" fill="#000000">4: ADLS &#45; Raw</text>
</g>
<!-- 1 -->
<g id="1" class="node">
<title>1</title>
<polygon fill="none" stroke="#000000" points="263,-96 167,-96 167,0 263,0 263,-96"/>
<text text-anchor="middle" x="215" y="-47" font-family="Times,serif" font-size="5.00" fill="#000000">1: Data Engineer</text>
</g>
<!-- 4&#45;&gt;1 -->
<g id="18" class="edge">
<title>4&#45;&gt;1</title>
<path fill="none" stroke="#000000" d="M59.8028,-311.7371C36.2715,-280.362 6,-240 6,-240 6,-240 6,-168 6,-168 6,-168 95.9962,-116.3275 157.8769,-80.798"/>
<polygon fill="#000000" stroke="#000000" points="159.8593,-83.6957 166.7888,-75.6811 156.3738,-77.6251 159.8593,-83.6957"/>
</g>
<!-- 15 -->
<g id="15" class="node">
<title>15</title>
<polygon fill="none" stroke="#000000" points="150,-240 42,-240 42,-168 150,-168 150,-240"/>
<text text-anchor="middle" x="96" y="-203" font-family="Times,serif" font-size="5.00" fill="#000000">15: Enterprise Transformation Engines</text>
</g>
<!-- 4&#45;&gt;15 -->
<g id="24" class="edge">
<title>4&#45;&gt;15</title>
<path fill="none" stroke="#000000" d="M89.2711,-311.6627C90.4373,-293.0027 91.8708,-270.0673 93.1146,-250.1671"/>
<polygon fill="#000000" stroke="#000000" points="96.6146,-250.2749 93.7453,-240.076 89.6282,-249.8382 96.6146,-250.2749"/>
</g>
<!-- 5 -->
<g id="5" class="node">
<title>5</title>
<polygon fill="none" stroke="#000000" points="321,-384 213,-384 213,-312 321,-312 321,-384"/>
<text text-anchor="middle" x="267" y="-347" font-family="Times,serif" font-size="5.00" fill="#000000">5: ADLS &#45; Bronze</text>
</g>
<!-- 5&#45;&gt;1 -->
<g id="22" class="edge">
<title>5&#45;&gt;1</title>
<path fill="none" stroke="#000000" d="M260.7276,-311.813C251.8924,-260.8406 235.6842,-167.3319 225.1287,-106.4349"/>
<polygon fill="#000000" stroke="#000000" points="228.5126,-105.4633 223.3561,-96.208 221.6154,-106.6589 228.5126,-105.4633"/>
</g>
<!-- 8 -->
<g id="8" class="node">
<title>8</title>
<polygon fill="none" stroke="#000000" points="519,-84 411,-84 411,-12 519,-12 519,-84"/>
<text text-anchor="middle" x="465" y="-47" font-family="Times,serif" font-size="5.00" fill="#000000">8: Monitoring &amp; Auditing</text>
</g>
<!-- 5&#45;&gt;8 -->
<g id="39" class="edge">
<title>5&#45;&gt;8</title>
<path fill="none" stroke="#000000" d="M321.0696,-324.1652C393.2195,-292.3604 512,-240 512,-240 512,-240 512,-168 512,-168 512,-168 496.0799,-127.353 482.7708,-93.3722"/>
<polygon fill="#000000" stroke="#000000" points="486.0075,-92.0388 479.1015,-84.004 479.4896,-94.5917 486.0075,-92.0388"/>
</g>
<!-- 10 -->
<g id="10" class="node">
<title>10</title>
<polygon fill="none" stroke="#000000" points="476,-240 368,-240 368,-168 476,-168 476,-240"/>
<text text-anchor="middle" x="422" y="-203" font-family="Times,serif" font-size="5.00" fill="#000000">10: Exploratory Engines</text>
</g>
<!-- 5&#45;&gt;10 -->
<g id="32" class="edge">
<title>5&#45;&gt;10</title>
<path fill="none" stroke="#000000" d="M306.113,-311.6627C327.3041,-291.9756 353.6178,-267.5293 375.8125,-246.9096"/>
<polygon fill="#000000" stroke="#000000" points="378.2242,-249.4465 383.1682,-240.076 373.4597,-244.3181 378.2242,-249.4465"/>
</g>
<!-- 15&#45;&gt;5 -->
<g id="29" class="edge">
<title>15&#45;&gt;5</title>
<path fill="none" stroke="#000000" d="M138.8402,-240.076C162.2699,-259.8062 191.4458,-284.3754 216.0388,-305.0853"/>
<polygon fill="#000000" stroke="#000000" points="213.9459,-307.8985 223.8495,-311.6627 218.4548,-302.5441 213.9459,-307.8985"/>
</g>
<!-- 15&#45;&gt;1 -->
<g id="21" class="edge">
<title>15&#45;&gt;1</title>
<path fill="none" stroke="#000000" d="M123.6001,-167.8184C138.0291,-148.903 156.0116,-125.3293 172.1996,-104.1081"/>
<polygon fill="#000000" stroke="#000000" points="175.0225,-106.1783 178.3048,-96.1047 169.4569,-101.9327 175.0225,-106.1783"/>
</g>
<!-- 10&#45;&gt;1 -->
<g id="36" class="edge">
<title>10&#45;&gt;1</title>
<path fill="none" stroke="#000000" d="M373.9897,-167.8184C343.2711,-144.6681 303.2936,-114.5401 271.1115,-90.287"/>
<polygon fill="#000000" stroke="#000000" points="273.2006,-87.4787 263.108,-84.2553 268.9876,-93.069 273.2006,-87.4787"/>
</g>
<!-- 10&#45;&gt;8 -->
<g id="45" class="edge">
<title>10&#45;&gt;8</title>
<path fill="none" stroke="#000000" d="M431.9731,-167.8184C438.0298,-145.8452 445.8193,-117.5859 452.3121,-94.0305"/>
<polygon fill="#000000" stroke="#000000" points="455.7233,-94.8259 455.0066,-84.2553 448.975,-92.9657 455.7233,-94.8259"/>
</g>
</g>
</svg>
