<?xml version="1.0" encoding="UTF-8" standalone="no"?>
<!DOCTYPE svg PUBLIC "-//W3C//DTD SVG 1.1//EN"
 "http://www.w3.org/Graphics/SVG/1.1/DTD/svg11.dtd">
<!-- Generated by graphviz version 2.40.1 (20161225.0304)
 -->
<!-- Title: %3 Pages: 1 -->
<svg width="420pt" height="392pt"
 viewBox="0.00 0.00 420.00 392.00" xmlns="http://www.w3.org/2000/svg" xmlns:xlink="http://www.w3.org/1999/xlink">
<g id="graph0" class="graph" transform="scale(1 1) rotate(0) translate(4 388)">
<title>%3</title>
<polygon fill="#ffffff" stroke="transparent" points="-4,4 -4,-388 416,-388 416,4 -4,4"/>
<g id="clust1" class="cluster">
<title>cluster_10</title>
<polygon fill="none" stroke="#000000" points="18,-143 18,-265 356,-265 356,-143 18,-143"/>
</g>
<!-- 11 -->
<g id="11" class="node">
<title>11</title>
<polygon fill="none" stroke="#000000" points="151,-240 43,-240 43,-168 151,-168 151,-240"/>
<text text-anchor="middle" x="97" y="-203" font-family="Times,serif" font-size="5.00" fill="#000000">11: Databricks Exploration Cluster</text>
</g>
<!-- 1 -->
<g id="1" class="node">
<title>1</title>
<polygon fill="none" stroke="#000000" points="145,-96 49,-96 49,0 145,0 145,-96"/>
<text text-anchor="middle" x="97" y="-47" font-family="Times,serif" font-size="5.00" fill="#000000">1: Data Engineer</text>
</g>
<!-- 11&#45;&gt;1 -->
<g id="35" class="edge">
<title>11&#45;&gt;1</title>
<path fill="none" stroke="#000000" d="M97,-167.8184C97,-149.5696 97,-126.9851 97,-106.3602"/>
<polygon fill="#000000" stroke="#000000" points="100.5001,-106.1046 97,-96.1047 93.5001,-106.1047 100.5001,-106.1046"/>
</g>
<!-- 14 -->
<g id="14" class="node">
<title>14</title>
<polygon fill="none" stroke="#000000" points="331,-240 223,-240 223,-168 331,-168 331,-240"/>
<text text-anchor="middle" x="277" y="-203" font-family="Times,serif" font-size="5.00" fill="#000000">14: Synapse Provisioned SQL Pool</text>
</g>
<!-- 14&#45;&gt;1 -->
<g id="37" class="edge">
<title>14&#45;&gt;1</title>
<path fill="none" stroke="#000000" d="M235.252,-167.8184C210.7701,-146.6008 179.5253,-119.5219 152.9346,-96.4766"/>
<polygon fill="#000000" stroke="#000000" points="155.0563,-93.6839 145.2071,-89.7795 150.4718,-98.9738 155.0563,-93.6839"/>
</g>
<!-- 8 -->
<g id="8" class="node">
<title>8</title>
<polygon fill="none" stroke="#000000" points="412,-84 304,-84 304,-12 412,-12 412,-84"/>
<text text-anchor="middle" x="358" y="-47" font-family="Times,serif" font-size="5.00" fill="#000000">8: Monitoring &amp; Auditing</text>
</g>
<!-- 14&#45;&gt;8 -->
<g id="43" class="edge">
<title>14&#45;&gt;8</title>
<path fill="none" stroke="#000000" d="M295.7866,-167.8184C307.2976,-145.649 322.1311,-117.0808 334.4266,-93.4006"/>
<polygon fill="#000000" stroke="#000000" points="337.6732,-94.7432 339.1751,-84.2553 331.4607,-91.5174 337.6732,-94.7432"/>
</g>
<!-- 2 -->
<g id="2" class="node">
<title>2</title>
<polygon fill="none" stroke="#000000" points="151,-384 43,-384 43,-312 151,-312 151,-384"/>
<text text-anchor="middle" x="97" y="-347" font-family="Times,serif" font-size="5.00" fill="#000000">2: DataLake</text>
</g>
<!-- 2&#45;&gt;11 -->
<g id="33" class="edge">
<title>2&#45;&gt;11</title>
<path fill="none" stroke="#000000" d="M97,-311.6627C97,-293.0027 97,-270.0673 97,-250.1671"/>
<polygon fill="#000000" stroke="#000000" points="100.5001,-250.0759 97,-240.076 93.5001,-250.076 100.5001,-250.0759"/>
</g>
<!-- 2&#45;&gt;1 -->
<g id="19" class="edge">
<title>2&#45;&gt;1</title>
<path fill="none" stroke="#000000" d="M54.7366,-311.8364C28.5971,-289.4697 0,-265 0,-265 0,-265 0,-143 0,-143 0,-143 19.7276,-123.6792 41.3895,-102.4639"/>
<polygon fill="#000000" stroke="#000000" points="44.0888,-104.7193 48.7842,-95.2217 39.1908,-99.7182 44.0888,-104.7193"/>
</g>
<!-- 2&#45;&gt;8 -->
<g id="41" class="edge">
<title>2&#45;&gt;8</title>
<path fill="none" stroke="#000000" d="M151.066,-331.7997C231.678,-307.6452 374,-265 374,-265 374,-265 374,-143 374,-143 374,-143 369.8411,-118.3066 365.764,-94.0988"/>
<polygon fill="#000000" stroke="#000000" points="369.2069,-93.4662 364.0946,-84.1864 362.3041,-94.6289 369.2069,-93.4662"/>
</g>
</g>
</svg>
