<?xml version="1.0" encoding="UTF-8" standalone="no"?>
<!DOCTYPE svg PUBLIC "-//W3C//DTD SVG 1.1//EN"
 "http://www.w3.org/Graphics/SVG/1.1/DTD/svg11.dtd">
<!-- Generated by graphviz version 2.40.1 (20161225.0304)
 -->
<!-- Title: %3 Pages: 1 -->
<svg width="182pt" height="257pt"
 viewBox="0.00 0.00 182.00 257.00" xmlns="http://www.w3.org/2000/svg" xmlns:xlink="http://www.w3.org/1999/xlink">
<g id="graph0" class="graph" transform="scale(1 1) rotate(0) translate(4 253)">
<title>%3</title>
<polygon fill="#ffffff" stroke="transparent" points="-4,4 -4,-253 178,-253 178,4 -4,4"/>
<g id="clust1" class="cluster">
<title>cluster_21</title>
<polygon fill="none" stroke="#000000" points="8,-8 8,-130 166,-130 166,-8 8,-8"/>
</g>
<!-- 22 -->
<g id="22" class="node">
<title>22</title>
<polygon fill="none" stroke="#000000" points="141,-105 33,-105 33,-33 141,-33 141,-105"/>
<text text-anchor="middle" x="87" y="-68" font-family="Times,serif" font-size="5.00" fill="#000000">22: Enterprise Data Lake for Audit Records</text>
</g>
<!-- 13 -->
<g id="13" class="node">
<title>13</title>
<polygon fill="none" stroke="#000000" points="141,-249 33,-249 33,-177 141,-177 141,-249"/>
<text text-anchor="middle" x="87" y="-212" font-family="Times,serif" font-size="5.00" fill="#000000">13: Power BI Audit Processing Solution</text>
</g>
<!-- 13&#45;&gt;22 -->
<g id="52" class="edge">
<title>13&#45;&gt;22</title>
<path fill="none" stroke="#000000" d="M87,-176.6627C87,-158.0027 87,-135.0673 87,-115.1671"/>
<polygon fill="#000000" stroke="#000000" points="90.5001,-115.0759 87,-105.076 83.5001,-115.076 90.5001,-115.0759"/>
</g>
</g>
</svg>
