<?xml version="1.0" encoding="UTF-8" standalone="no"?>
<!DOCTYPE svg PUBLIC "-//W3C//DTD SVG 1.1//EN"
 "http://www.w3.org/Graphics/SVG/1.1/DTD/svg11.dtd">
<!-- Generated by graphviz version 2.40.1 (20161225.0304)
 -->
<!-- Title: %3 Pages: 1 -->
<svg width="492pt" height="425pt"
 viewBox="0.00 0.00 492.00 425.00" xmlns="http://www.w3.org/2000/svg" xmlns:xlink="http://www.w3.org/1999/xlink">
<g id="graph0" class="graph" transform="scale(1 1) rotate(0) translate(4 421)">
<title>%3</title>
<polygon fill="#ffffff" stroke="transparent" points="-4,4 -4,-421 488,-421 488,4 -4,4"/>
<g id="clust1" class="cluster">
<title>cluster_8</title>
<polygon fill="none" stroke="#000000" points="138,-287 138,-409 476,-409 476,-287 138,-287"/>
</g>
<!-- 11 -->
<g id="11" class="node">
<title>11</title>
<polygon fill="none" stroke="#000000" points="271,-384 163,-384 163,-312 271,-312 271,-384"/>
<text text-anchor="middle" x="217" y="-347" font-family="Times,serif" font-size="5.00" fill="#000000">11: ADLS &#45; Bronze</text>
</g>
<!-- 14 -->
<g id="14" class="node">
<title>14</title>
<polygon fill="none" stroke="#000000" points="108,-240 0,-240 0,-168 108,-168 108,-240"/>
<text text-anchor="middle" x="54" y="-203" font-family="Times,serif" font-size="5.00" fill="#000000">14: Monitoring &amp; Auditing</text>
</g>
<!-- 11&#45;&gt;14 -->
<g id="31" class="edge">
<title>11&#45;&gt;14</title>
<path fill="none" stroke="#000000" d="M175.8682,-311.6627C153.5835,-291.9756 125.9116,-267.5293 102.5713,-246.9096"/>
<polygon fill="#000000" stroke="#000000" points="104.6477,-244.0738 94.836,-240.076 100.0131,-249.3198 104.6477,-244.0738"/>
</g>
<!-- 16 -->
<g id="16" class="node">
<title>16</title>
<polygon fill="none" stroke="#000000" points="288,-240 180,-240 180,-168 288,-168 288,-240"/>
<text text-anchor="middle" x="234" y="-203" font-family="Times,serif" font-size="5.00" fill="#000000">16: Exploratory Engines</text>
</g>
<!-- 11&#45;&gt;16 -->
<g id="25" class="edge">
<title>11&#45;&gt;16</title>
<path fill="none" stroke="#000000" d="M221.2898,-311.6627C223.4927,-293.0027 226.2004,-270.0673 228.5497,-250.1671"/>
<polygon fill="#000000" stroke="#000000" points="232.0444,-250.4174 229.741,-240.076 225.0927,-249.5966 232.0444,-250.4174"/>
</g>
<!-- 10 -->
<g id="10" class="node">
<title>10</title>
<polygon fill="none" stroke="#000000" points="451,-384 343,-384 343,-312 451,-312 451,-384"/>
<text text-anchor="middle" x="397" y="-347" font-family="Times,serif" font-size="5.00" fill="#000000">10: ADLS &#45; Raw</text>
</g>
<!-- 1 -->
<g id="1" class="node">
<title>1</title>
<polygon fill="none" stroke="#000000" points="363,-96 267,-96 267,0 363,0 363,-96"/>
<text text-anchor="middle" x="315" y="-47" font-family="Times,serif" font-size="5.00" fill="#000000">1: Data Engineer</text>
</g>
<!-- 10&#45;&gt;1 -->
<g id="22" class="edge">
<title>10&#45;&gt;1</title>
<path fill="none" stroke="#000000" d="M387.1089,-311.813C373.1477,-260.7353 347.5117,-166.9453 330.8691,-106.0579"/>
<polygon fill="#000000" stroke="#000000" points="334.1897,-104.9313 328.1769,-96.208 327.4374,-106.777 334.1897,-104.9313"/>
</g>
<!-- 16&#45;&gt;1 -->
<g id="29" class="edge">
<title>16&#45;&gt;1</title>
<path fill="none" stroke="#000000" d="M252.7866,-167.8184C262.435,-149.2363 274.4176,-126.1587 285.2833,-105.2321"/>
<polygon fill="#000000" stroke="#000000" points="288.5206,-106.5925 290.0226,-96.1047 282.3081,-103.3668 288.5206,-106.5925"/>
</g>
</g>
</svg>
