<?xml version="1.0" encoding="UTF-8" standalone="no"?>
<!DOCTYPE svg PUBLIC "-//W3C//DTD SVG 1.1//EN"
 "http://www.w3.org/Graphics/SVG/1.1/DTD/svg11.dtd">
<!-- Generated by graphviz version 2.40.1 (20161225.0304)
 -->
<!-- Title: %3 Pages: 1 -->
<svg width="185pt" height="545pt"
 viewBox="0.00 0.00 185.00 545.00" xmlns="http://www.w3.org/2000/svg" xmlns:xlink="http://www.w3.org/1999/xlink">
<g id="graph0" class="graph" transform="scale(1 1) rotate(0) translate(4 541)">
<title>%3</title>
<polygon fill="#ffffff" stroke="transparent" points="-4,4 -4,-541 181,-541 181,4 -4,4"/>
<g id="clust1" class="cluster">
<title>cluster_10</title>
<polygon fill="none" stroke="#000000" points="8,-263 8,-529 166,-529 166,-263 8,-263"/>
</g>
<!-- 11 -->
<g id="11" class="node">
<title>11</title>
<polygon fill="none" stroke="#000000" points="141,-360 33,-360 33,-288 141,-288 141,-360"/>
<text text-anchor="middle" x="87" y="-323" font-family="Times,serif" font-size="5.00" fill="#000000">11: Power BI Metadata &amp; Usage</text>
</g>
<!-- 5 -->
<g id="5" class="node">
<title>5</title>
<polygon fill="none" stroke="#000000" points="141,-216 33,-216 33,-144 141,-144 141,-216"/>
<text text-anchor="middle" x="87" y="-179" font-family="Times,serif" font-size="5.00" fill="#000000">5: Power BI Audit Capture Solution</text>
</g>
<!-- 11&#45;&gt;5 -->
<g id="62" class="edge">
<title>11&#45;&gt;5</title>
<path fill="none" stroke="#000000" d="M87,-287.6627C87,-269.0027 87,-246.0673 87,-226.1671"/>
<polygon fill="#000000" stroke="#000000" points="90.5001,-226.0759 87,-216.076 83.5001,-226.076 90.5001,-226.0759"/>
</g>
<!-- 12 -->
<g id="12" class="node">
<title>12</title>
<polygon fill="none" stroke="#000000" points="141,-504 33,-504 33,-432 141,-432 141,-504"/>
<text text-anchor="middle" x="87" y="-467" font-family="Times,serif" font-size="5.00" fill="#000000">12: Power BI Metadata Collection Functions</text>
</g>
<!-- 12&#45;&gt;11 -->
<g id="60" class="edge">
<title>12&#45;&gt;11</title>
<path fill="none" stroke="#000000" d="M87,-431.6627C87,-413.0027 87,-390.0673 87,-370.1671"/>
<polygon fill="#000000" stroke="#000000" points="90.5001,-370.0759 87,-360.076 83.5001,-370.076 90.5001,-370.0759"/>
</g>
<!-- 17 -->
<g id="17" class="node">
<title>17</title>
<polygon fill="none" stroke="#000000" points="141,-72 33,-72 33,0 141,0 141,-72"/>
<text text-anchor="middle" x="87" y="-35" font-family="Times,serif" font-size="5.00" fill="#000000">17: Power Platform</text>
</g>
<!-- 5&#45;&gt;17 -->
<g id="36" class="edge">
<title>5&#45;&gt;17</title>
<path fill="none" stroke="#000000" d="M63.1904,-143.6627C59.5535,-125.0027 59.026,-102.0673 61.608,-82.1671"/>
<polygon fill="#000000" stroke="#000000" points="65.0985,-82.5068 63.2416,-72.076 58.1884,-81.3881 65.0985,-82.5068"/>
</g>
<!-- 17&#45;&gt;12 -->
<g id="58" class="edge">
<title>17&#45;&gt;12</title>
<path fill="none" stroke="#000000" d="M117.2191,-72.2629C143.365,-103.638 177,-144 177,-144 177,-144 177,-360 177,-360 177,-360 148.6569,-394.0117 123.7819,-423.8617"/>
<polygon fill="#000000" stroke="#000000" points="120.9322,-421.8142 117.2191,-431.7371 126.3097,-426.2955 120.9322,-421.8142"/>
</g>
<!-- 17&#45;&gt;5 -->
<g id="40" class="edge">
<title>17&#45;&gt;5</title>
<path fill="none" stroke="#000000" d="M110.7584,-72.076C114.4244,-90.6958 114.9809,-113.6254 112.428,-133.5537"/>
<polygon fill="#000000" stroke="#000000" points="108.9345,-133.2351 110.8096,-143.6627 115.8465,-134.3418 108.9345,-133.2351"/>
</g>
</g>
</svg>
