<?xml version="1.0" encoding="UTF-8" standalone="no"?>
<!DOCTYPE svg PUBLIC "-//W3C//DTD SVG 1.1//EN"
 "http://www.w3.org/Graphics/SVG/1.1/DTD/svg11.dtd">
<!-- Generated by graphviz version 2.40.1 (20161225.0304)
 -->
<!-- Title: %3 Pages: 1 -->
<svg width="689pt" height="285pt"
 viewBox="0.00 0.00 689.00 285.00" xmlns="http://www.w3.org/2000/svg" xmlns:xlink="http://www.w3.org/1999/xlink">
<g id="graph0" class="graph" transform="scale(1 1) rotate(0) translate(4 281)">
<title>%3</title>
<polygon fill="#ffffff" stroke="transparent" points="-4,4 -4,-281 685,-281 685,4 -4,4"/>
<g id="clust1" class="cluster">
<title>cluster_17</title>
<polygon fill="none" stroke="#000000" points="8,-119 8,-241 526,-241 526,-119 8,-119"/>
</g>
<!-- 18 -->
<g id="18" class="node">
<title>18</title>
<polygon fill="none" stroke="#000000" points="501,-216 393,-216 393,-144 501,-144 501,-216"/>
<text text-anchor="middle" x="447" y="-179" font-family="Times,serif" font-size="5.00" fill="#000000">18: PowerBi Service &#45; app.powerbi.com</text>
</g>
<!-- 5 -->
<g id="5" class="node">
<title>5</title>
<polygon fill="none" stroke="#000000" points="591,-72 483,-72 483,0 591,0 591,-72"/>
<text text-anchor="middle" x="537" y="-35" font-family="Times,serif" font-size="5.00" fill="#000000">5: Power BI Audit Capture Solution</text>
</g>
<!-- 18&#45;&gt;5 -->
<g id="38" class="edge">
<title>18&#45;&gt;5</title>
<path fill="none" stroke="#000000" d="M445.9012,-143.6627C454.2213,-124.318 468.7551,-100.3782 484.4117,-79.9889"/>
<polygon fill="#000000" stroke="#000000" points="487.2172,-82.0841 490.6941,-72.076 481.735,-77.7315 487.2172,-82.0841"/>
</g>
<!-- 19 -->
<g id="19" class="node">
<title>19</title>
<polygon fill="none" stroke="#000000" points="321,-216 213,-216 213,-144 321,-144 321,-216"/>
<text text-anchor="middle" x="267" y="-179" font-family="Times,serif" font-size="5.00" fill="#000000">19: PowerBi Admin Api</text>
</g>
<!-- 10 -->
<g id="10" class="node">
<title>10</title>
<polygon fill="none" stroke="#000000" points="681,-216 573,-216 573,-144 681,-144 681,-216"/>
<text text-anchor="middle" x="627" y="-179" font-family="Times,serif" font-size="5.00" fill="#000000">10: Power BI Metadata &amp; Telemetry Capture Solution</text>
</g>
<!-- 19&#45;&gt;10 -->
<g id="57" class="edge">
<title>19&#45;&gt;10</title>
<path fill="none" stroke="#000000" d="M313.9177,-216.1192C349.7413,-243.6977 393,-277 393,-277 393,-277 508,-277 508,-277 508,-277 542.7211,-248.6979 574.6533,-222.6691"/>
<polygon fill="#000000" stroke="#000000" points="577.149,-225.1504 582.6888,-216.1192 572.7262,-219.7245 577.149,-225.1504"/>
</g>
<!-- 20 -->
<g id="20" class="node">
<title>20</title>
<polygon fill="none" stroke="#000000" points="141,-216 33,-216 33,-144 141,-144 141,-216"/>
<text text-anchor="middle" x="87" y="-179" font-family="Times,serif" font-size="5.00" fill="#000000">20: PowerBi Embedded Api</text>
</g>
<!-- 5&#45;&gt;18 -->
<g id="35" class="edge">
<title>5&#45;&gt;18</title>
<path fill="none" stroke="#000000" d="M538.2109,-72.076C529.947,-91.3791 515.4463,-115.3141 499.7999,-135.7352"/>
<polygon fill="#000000" stroke="#000000" points="496.986,-133.6507 493.5204,-143.6627 502.4732,-137.9972 496.986,-133.6507"/>
</g>
<!-- 10&#45;&gt;5 -->
<g id="64" class="edge">
<title>10&#45;&gt;5</title>
<path fill="none" stroke="#000000" d="M604.2892,-143.6627C592.3592,-124.5748 577.6331,-101.0129 565.0017,-80.8027"/>
<polygon fill="#000000" stroke="#000000" points="567.8155,-78.701 559.5475,-72.076 561.8795,-82.411 567.8155,-78.701"/>
</g>
</g>
</svg>
