<?xml version="1.0" encoding="UTF-8" standalone="no"?>
<!DOCTYPE svg PUBLIC "-//W3C//DTD SVG 1.1//EN"
 "http://www.w3.org/Graphics/SVG/1.1/DTD/svg11.dtd">
<!-- Generated by graphviz version 2.40.1 (20161225.0304)
 -->
<!-- Title: %3 Pages: 1 -->
<svg width="735pt" height="561pt"
 viewBox="0.00 0.00 735.00 561.00" xmlns="http://www.w3.org/2000/svg" xmlns:xlink="http://www.w3.org/1999/xlink">
<g id="graph0" class="graph" transform="scale(1 1) rotate(0) translate(4 557)">
<title>%3</title>
<polygon fill="#ffffff" stroke="transparent" points="-4,4 -4,-557 731,-557 731,4 -4,4"/>
<g id="clust1" class="cluster">
<title>cluster_enterprise</title>
<polygon fill="none" stroke="#000000" points="8,-8 8,-545 719,-545 719,-8 8,-8"/>
</g>
<g id="clust2" class="cluster">
<title>cluster_group_1</title>
<polygon fill="none" stroke="#000000" points="176,-33 176,-373 694,-373 694,-33 176,-33"/>
</g>
<g id="clust3" class="cluster">
<title>cluster_group_2</title>
<polygon fill="none" stroke="#000000" points="356,-398 356,-520 514,-520 514,-398 356,-398"/>
</g>
<!-- 13 -->
<g id="13" class="node">
<title>13</title>
<polygon fill="none" stroke="#000000" points="489,-130 381,-130 381,-58 489,-58 489,-130"/>
<text text-anchor="middle" x="435" y="-93" font-family="Times,serif" font-size="5.00" fill="#000000">13: Power BI Audit Processing Solution</text>
</g>
<!-- 21 -->
<g id="21" class="node">
<title>21</title>
<polygon fill="none" stroke="#000000" points="669,-130 561,-130 561,-58 669,-58 669,-130"/>
<text text-anchor="middle" x="615" y="-93" font-family="Times,serif" font-size="5.00" fill="#000000">21: Enterprise Audit Storage &amp; Analytics</text>
</g>
<!-- 13&#45;&gt;21 -->
<g id="53" class="edge">
<title>13&#45;&gt;21</title>
<path fill="none" stroke="#000000" d="M489.0059,-94C508.4067,-94 530.4792,-94 550.6704,-94"/>
<polygon fill="#000000" stroke="#000000" points="550.7214,-97.5001 560.7213,-94 550.7213,-90.5001 550.7214,-97.5001"/>
</g>
<!-- 5 -->
<g id="5" class="node">
<title>5</title>
<polygon fill="none" stroke="#000000" points="309,-274 201,-274 201,-202 309,-202 309,-274"/>
<text text-anchor="middle" x="255" y="-237" font-family="Times,serif" font-size="5.00" fill="#000000">5: Power BI Audit Capture Solution</text>
</g>
<!-- 5&#45;&gt;13 -->
<g id="47" class="edge">
<title>5&#45;&gt;13</title>
<path fill="none" stroke="#000000" d="M300.4216,-201.6627C325.2445,-181.8044 356.1203,-157.1038 382.0342,-136.3726"/>
<polygon fill="#000000" stroke="#000000" points="384.2828,-139.056 389.905,-130.076 379.9099,-133.5899 384.2828,-139.056"/>
</g>
<!-- 17 -->
<g id="17" class="node">
<title>17</title>
<polygon fill="none" stroke="#000000" points="489,-274 381,-274 381,-202 489,-202 489,-274"/>
<text text-anchor="middle" x="435" y="-237" font-family="Times,serif" font-size="5.00" fill="#000000">17: Power Platform</text>
</g>
<!-- 5&#45;&gt;17 -->
<g id="36" class="edge">
<title>5&#45;&gt;17</title>
<path fill="none" stroke="#000000" d="M309.0059,-213.0187C328.4067,-210.7253 350.4792,-210.386 370.6704,-212.0008"/>
<polygon fill="#000000" stroke="#000000" points="370.4274,-215.4937 380.7213,-212.9866 371.1108,-208.5271 370.4274,-215.4937"/>
</g>
<!-- 3 -->
<g id="3" class="node">
<title>3</title>
<polygon fill="none" stroke="#000000" points="489,-495 381,-495 381,-423 489,-423 489,-495"/>
<text text-anchor="middle" x="435" y="-458" font-family="Times,serif" font-size="5.00" fill="#000000">3: Client Web Browsers</text>
</g>
<!-- 5&#45;&gt;3 -->
<g id="28" class="edge">
<title>5&#45;&gt;3</title>
<path fill="none" stroke="#000000" d="M266.7837,-274.2952C293.4263,-332.2102 356,-427 356,-427 356,-427 363.0546,-433.0723 372.9475,-440.6271"/>
<polygon fill="#000000" stroke="#000000" points="370.8843,-443.4545 380.9961,-446.6172 375.0636,-437.839 370.8843,-443.4545"/>
</g>
<!-- 17&#45;&gt;5 -->
<g id="40" class="edge">
<title>17&#45;&gt;5</title>
<path fill="none" stroke="#000000" d="M380.7213,-263.0134C361.2956,-265.2885 339.2196,-265.6095 319.046,-263.9764"/>
<polygon fill="#000000" stroke="#000000" points="319.3024,-260.4847 309.0059,-262.9813 318.6119,-267.4506 319.3024,-260.4847"/>
</g>
<!-- 10 -->
<g id="10" class="node">
<title>10</title>
<polygon fill="none" stroke="#000000" points="669,-306 561,-306 561,-234 669,-234 669,-306"/>
<text text-anchor="middle" x="615" y="-269" font-family="Times,serif" font-size="5.00" fill="#000000">10: Power BI Metadata &amp; Telemetry Capture Solution</text>
</g>
<!-- 17&#45;&gt;10 -->
<g id="59" class="edge">
<title>17&#45;&gt;10</title>
<path fill="none" stroke="#000000" d="M489.0059,-247.6011C508.4067,-251.0501 530.4792,-254.9741 550.6704,-258.5636"/>
<polygon fill="#000000" stroke="#000000" points="550.2631,-262.046 560.7213,-260.3505 551.4884,-255.1541 550.2631,-262.046"/>
</g>
<!-- 10&#45;&gt;5 -->
<g id="64" class="edge">
<title>10&#45;&gt;5</title>
<path fill="none" stroke="#000000" d="M560.9518,-291.4052C536.9383,-300.9155 514,-310 514,-310 514,-310 356,-310 356,-310 356,-310 336.1275,-295.8335 314.0124,-280.0682"/>
<polygon fill="#000000" stroke="#000000" points="315.9704,-277.1658 305.7959,-274.2109 311.907,-282.8657 315.9704,-277.1658"/>
</g>
<!-- 3&#45;&gt;5 -->
<g id="32" class="edge">
<title>3&#45;&gt;5</title>
<path fill="none" stroke="#000000" d="M419.5805,-422.9859C396.59,-389.9382 356,-355 356,-355 356,-355 330.2957,-316.0617 304.8215,-282.0942"/>
<polygon fill="#000000" stroke="#000000" points="307.5456,-279.894 298.7126,-274.0433 301.9691,-284.1253 307.5456,-279.894"/>
</g>
<!-- 1 -->
<g id="1" class="node">
<title>1</title>
<polygon fill="none" stroke="#000000" points="663,-507 567,-507 567,-411 663,-411 663,-507"/>
<text text-anchor="middle" x="615" y="-458" font-family="Times,serif" font-size="5.00" fill="#000000">1: Information Consumer</text>
</g>
<!-- 3&#45;&gt;1 -->
<g id="24" class="edge">
<title>3&#45;&gt;1</title>
<path fill="none" stroke="#000000" d="M489.0059,-459C510.3718,-459 534.978,-459 556.7434,-459"/>
<polygon fill="#000000" stroke="#000000" points="556.8465,-462.5001 566.8465,-459 556.8464,-455.5001 556.8465,-462.5001"/>
</g>
<!-- 2 -->
<g id="2" class="node">
<title>2</title>
<polygon fill="none" stroke="#000000" points="129,-286 33,-286 33,-190 129,-190 129,-286"/>
<text text-anchor="middle" x="81" y="-237" font-family="Times,serif" font-size="5.00" fill="#000000">2: Information Producer</text>
</g>
<!-- 2&#45;&gt;5 -->
<g id="55" class="edge">
<title>2&#45;&gt;5</title>
<path fill="none" stroke="#000000" d="M129.0069,-238C148.0246,-238 170.1766,-238 190.5552,-238"/>
<polygon fill="#000000" stroke="#000000" points="190.7085,-241.5001 200.7085,-238 190.7085,-234.5001 190.7085,-241.5001"/>
</g>
</g>
</svg>
